<?xml version="1.0" standalone="no"?>
<!DOCTYPE svg PUBLIC "-//W3C//DTD SVG 20010904//EN"
 "http://www.w3.org/TR/2001/REC-SVG-20010904/DTD/svg10.dtd">
<svg version="1.0" xmlns="http://www.w3.org/2000/svg"
 width="36px" height="36px" viewBox="0 0 200.000000 200.000000"
 preserveAspectRatio="xMidYMid meet">
<g transform="translate(0.000000,200.000000) scale(0.100000,-0.100000)"
fill="#000000" stroke="none">
<path d="M718 1848 c-5 -217 -7 -200 32 -213 30 -10 35 -17 38 -47 3 -34 1
-36 -35 -43 -112 -21 -258 -109 -355 -214 -193 -209 -246 -516 -135 -790 74
-183 248 -343 443 -407 82 -27 100 -29 239 -29 138 0 156 2 231 28 234 80 399
253 475 497 19 61 24 98 24 195 0 143 -19 228 -76 342 l-39 77 21 22 c12 13
28 20 36 17 15 -6 133 102 133 121 0 5 -19 30 -43 55 -23 25 -50 57 -59 69
-19 27 -19 27 -101 -38 -31 -25 -57 -51 -57 -59 0 -8 -9 -25 -21 -37 l-21 -23
-56 46 c-68 55 -170 106 -263 130 -64 16 -69 19 -69 45 0 22 7 31 35 42 l35
15 0 83 c0 46 -3 112 -6 148 l-6 65 -199 0 -199 0 -2 -97z m318 -449 c99 -18
217 -81 293 -157 112 -113 165 -240 165 -397 -1 -155 -50 -271 -164 -386 -116
-118 -236 -169 -395 -169 -151 0 -271 49 -384 155 -185 175 -228 442 -108 670
49 92 148 185 248 234 121 58 221 73 345 50z"/>
<path d="M1159 1052 c-138 -94 -147 -99 -196 -98 -61 1 -97 -25 -110 -82 -7
-30 -25 -49 -103 -110 -52 -41 -104 -80 -114 -87 -19 -14 -19 -15 5 -49 13
-20 29 -36 35 -36 7 0 61 38 120 85 92 72 113 85 137 80 45 -8 95 19 113 61 8
20 13 41 11 47 -3 7 57 74 131 150 75 75 132 137 126 137 -6 0 -76 -44 -155
-98z"/>
</g>
</svg>
